# xmcd CD database file
#
# Track frame offsets:
#	150
#	18226
#	48063
#	66084
#	86803
#	110247
#	128946
#	151128
#	178524
#	195199
#	218310
#	236651
#	255250
#	279229
#	300258
#
# Disc length: 4285 seconds
#
# Revision: 0
# Processed by: cddbd v1.5.1PL0 Copyright (c) Steve Scherf et al.
# Submitted via: CDex 1.50
#
DISCID=b310bb0f
DTITLE=John Mayall and the Bluesbreakers - Road Dogs
DYEAR=2005
DGENRE=Blues
TTITLE0=Road Dogs
TTITLE1=Short Wave Radio
TTITLE2=So Glad
TTITLE3=Forty Days
TTITLE4=To Heal the Pain
TTITLE5=Burned Bridges
TTITLE6=Snake Eye
TTITLE7=Kona Village
TTITLE8=Beyond Control
TTITLE9=Chaos in the Neighborhood
TTITLE10=You'll Survive
TTITLE11=Awestruck and Spellbound
TTITLE12=With You
TTITLE13=Brumwell's Beat
TTITLE14=Scrambling
EXTD=YEAR: 2005
EXTT0=
EXTT1=
EXTT2=
EXTT3=
EXTT4=
EXTT5=
EXTT6=
EXTT7=
EXTT8=
EXTT9=
EXTT10=
EXTT11=
EXTT12=
EXTT13=
EXTT14=
PLAYORDER=
